PathFileType	4	(X/Y/Z)	/Users/niels/Desktop/University/Third Semester/Perception and Action/Exam/Gymnastics Motion Tracking/Code for Gym Tracking/Analyzed Data/Webcam_Backflip/id5_3_trajectory_Sports2D/id5_3_trajectory_Sports2D_px_person00.trc
DataRate	CameraRate	NumFrames	NumMarkers	Units	OrigDataRate	OrigDataStartFrame	OrigNumFrames
29.808917197452228	29.808917197452228	10	22	m	29.808917197452228	0	157
Frame#	Time	Hip			RHip			RKnee			RAnkle			RBigToe			RSmallToe			RHeel			LHip			LKnee			LAnkle			LBigToe			LSmallToe			LHeel			Neck			Head			Nose			RShoulder			RElbow			RWrist			LShoulder			LElbow			LWrist		
		X1	Y1	Z1	X2	Y2	Z2	X3	Y3	Z3	X4	Y4	Z4	X5	Y5	Z5	X6	Y6	Z6	X7	Y7	Z7	X8	Y8	Z8	X9	Y9	Z9	X10	Y10	Z10	X11	Y11	Z11	X12	Y12	Z12	X13	Y13	Z13	X14	Y14	Z14	X15	Y15	Z15	X16	Y16	Z16	X17	Y17	Z17	X18	Y18	Z18	X19	Y19	Z19	X20	Y20	Z20	X21	Y21	Z21	X22	Y22	Z22
0	0.0	0.9850004544088111	-0.5689409388286376	0.0	0.9886639219350297	-0.5689382664769237	0.0	0.9887040252653059	-0.678887278970996	0.0	0.9648456458321917	-0.7870129534456186	0.0	1.003342336697772	-0.8090090545123408	0.0	0.9960105051021526	-0.8108340151760649	0.0	0.9538462607298462	-0.8053380238343043	0.0	0.9831646908087123	-0.5671052000309921	0.0	0.9868675029060648	-0.6770590714491431	0.0	0.9630136261885528	-0.7833532407151281	0.0	0.9996711261530873	-0.8035218642181247	0.0	0.9960020030114661	-0.799851248373492	0.0	0.9538402520699233	-0.7980152186984573	0.0	0.9905096281547974	-0.4204770531611917	0.0	1.005186832964299	-0.3526554965450107	0.0	1.01984345377907	-0.38381671821469004	0.0	0.9941803265531381	-0.4259781755990318	0.0	1.0436449767800955	-0.38205577047539857	0.0	1.0784789467244043	-0.32163281231406554	0.0	0.9776799461266221	-0.42963722494629636	0.0	1.005156548465752	-0.4847040203062795	0.0	1.0104925421838822	-0.5232407855076616	0.0
1	0.033547008547008546	0.9844747840625719	-0.5695955998393656	0.0	0.9876812839387764	-0.5697813034258827	0.0	0.987918391482449	-0.6792972511202087	0.0	0.9647501672674876	-0.7869501502359642	0.0	1.0020126669791378	-0.8093514085121588	0.0	0.9948022396077766	-0.8114062871637309	0.0	0.9539264800264365	-0.8048172658707681	0.0	0.9821766482468521	-0.5686214323227681	0.0	0.9860116736995974	-0.677822245791133	0.0	0.9630179624841977	-0.7831454394005956	0.0	0.9982986448581543	-0.8042913243354004	0.0	0.9951687173558454	-0.8009928709054146	0.0	0.953993227347539	-0.7975609931044352	0.0	0.9910573017059964	-0.42162717831007046	0.0	1.0057149791264393	-0.3529471965879175	0.0	1.0205686068186617	-0.38480421081035765	0.0	0.9939090653971522	-0.4263314634682408	0.0	1.0446409517469992	-0.38298023013634996	0.0	1.0802212179652733	-0.32416614255155257	0.0	0.9791294204614265	-0.43077205320121836	0.0	1.0065758708317323	-0.48596000458706995	0.0	1.011657126767245	-0.5275861317912086	0.0
2	0.06709401709401709	0.9838956716756881	-0.5700502455570116	0.0	0.986727571484308	-0.5703769444827015	0.0	0.9871867913801885	-0.6795301115613588	0.0	0.9646272512421504	-0.78695515378191	0.0	1.0007821045520962	-0.8096109692214248	0.0	0.9935891259851214	-0.8118762231468738	0.0	0.9540263336960225	-0.8042790134172234	0.0	0.9811603398835166	-0.5697263871540548	0.0	0.9852020851667503	-0.6783900280533577	0.0	0.9630285896842656	-0.7829122653872271	0.0	0.996982495101991	-0.8048529662835183	0.0	0.994160633326419	-0.8018592143328894	0.0	0.9540430432647405	-0.7970827851936727	0.0	0.9915330442793481	-0.4225128506461956	0.0	1.0062975772471938	-0.35315772511587007	0.0	1.0213412981374301	-0.3854264830946764	0.0	0.9937741511183433	-0.42653570351388775	0.0	1.0458524828995732	-0.38382778448915655	0.0	1.0823074752291357	-0.3263985957479424	0.0	0.9801726297795726	-0.43171934051894073	0.0	1.0077784460400565	-0.4869530303755615	0.0	1.0123537992945941	-0.5302413002647538	0.0
3	0.10064102564102564	0.9831990060082385	-0.5701319091310922	0.0	0.9857693040665616	-0.5704939366411669	0.0	0.986533002420414	-0.6794042391221439	0.0	0.9644863242053294	-0.7869650243857265	0.0	0.9996952860738103	-0.8096909592150582	0.0	0.9923834548284127	-0.8121152926711973	0.0	0.9541618458673363	-0.8036480752717805	0.0	0.9800550200757824	-0.5701219756983987	0.0	0.9844551961893114	-0.6785965457020624	0.0	0.9630663958768251	-0.7825303562453834	0.0	0.9957499473207394	-0.8050357358968009	0.0	0.9928956800801941	-0.802239444793837	0.0	0.9539018181164142	-0.7964839474236108	0.0	0.9919032812161845	-0.42299025397932954	0.0	1.0070194715337575	-0.3532358707716783	0.0	1.0222059640061054	-0.3855485033542059	0.0	0.9938585729030165	-0.4264893645817302	0.0	1.0474744875060786	-0.3846099297899062	0.0	1.08507404484321	-0.3282728014594996	0.0	0.9805992194442669	-0.43230581737629814	0.0	1.0088934484261554	-0.4872774894408617	0.0	1.0127030238083066	-0.5292409168529564	0.0
4	0.13418803418803418	0.9823085947729225	-0.5697070705506544	0.0	0.9847147868991197	-0.5699715746835003	0.0	0.9859336262685321	-0.6787772995689122	0.0	0.9643744554946315	-0.7867849563852566	0.0	0.9988000352608852	-0.8094678049215643	0.0	0.9912952264565235	-0.8119744365228113	0.0	0.9543403476953265	-0.8027899232742224	0.0	0.9788448797552012	-0.5696955336202089	0.0	0.9837698008580499	-0.6782956810346937	0.0	0.9631659116894641	-0.7818074533192276	0.0	0.9946631721573415	-0.8046934788280884	0.0	0.9915123296863999	-0.8019824816461278	0.0	0.9535694221250903	-0.7955927057440447	0.0	0.9922008088786161	-0.4230114433192887	0.0	1.0079811765485363	-0.3531441266425789	0.0	1.0231684223103286	-0.3852648052187298	0.0	0.994150449846783	-0.4261273028956801	0.0	1.0495956596710898	-0.38546581788551415	0.0	1.0887527752643698	-0.3300355645605919	0.0	0.9804837485453777	-0.4323742225169185	0.0	1.0103083696520314	-0.4863023244085594	0.0	1.0132041841529413	-0.5222623042573578	0.0
5	0.16773504273504272	0.9811256662343398	-0.5687100034695869	0.0	0.9834083584591449	-0.5687839150703928	0.0	0.985371958454427	-0.6775853700473135	0.0	0.9643195250551145	-0.7861639567437884	0.0	0.998155935127733	-0.8087811486830973	0.0	0.9904645998249607	-0.8113058228572084	0.0	0.9545307826338658	-0.8015335636798745	0.0	0.9775786525220083	-0.5685308962979267	0.0	0.9831775085571435	-0.6773628174218979	0.0	0.9633498526696638	-0.7805515469000417	0.0	0.9938564874787452	-0.8036839941951859	0.0	0.9903882108833313	-0.8009851352877893	0.0	0.9531729763474525	-0.7942111023692573	0.0	0.9925476810932081	-0.4225463780904061	0.0	1.0092567897530553	-0.3528508737405973	0.0	1.0241996451211333	-0.3847542678845807	0.0	0.9945782128282297	-0.4254122393297259	0.0	1.0521931035410503	-0.38665910250301266	0.0	1.0934888444745083	-0.33217913863026277	0.0	0.9801674956605849	-0.4318056674784279	0.0	1.0125882024996018	-0.4832187352788197	0.0	1.014755282621837	-0.50722858090746	0.0
6	0.2012820512820513	0.9795441534504382	-0.5672024099182834	0.0	0.981677312723879	-0.5670734016400073	0.0	0.984890931372357	-0.6758789816713302	0.0	0.964272971834619	-0.7849111262500224	0.0	0.9977406210257425	-0.80750840105761	0.0	0.9898819468858866	-0.810040369304117	0.0	0.9546292458116241	-0.799744922149126	0.0	0.9762713048531042	-0.5668555130852332	0.0	0.9827483079353325	-0.6757790369710003	0.0	0.9635957234593635	-0.7786619719585695	0.0	0.9934538136526154	-0.8019677948669414	0.0	0.9899316604932621	-0.7992954439508078	0.0	0.9528703830524977	-0.7922437324012461	0.0	0.9931122006442418	-0.4215921013666055	0.0	1.010842815923256	-0.3523625938801971	0.0	1.0252802413537476	-0.3841979834216127	0.0	0.9951029315271069	-0.4243896441726432	0.0	1.0552077208519797	-0.38846726251274655	0.0	1.099370483309057	-0.33523968080063127	0.0	0.9801196308065134	-0.43058026511735553	0.0	1.0164632792035004	-0.47715894841122575	0.0	1.018742242139069	-0.4835096727725695	0.0
7	0.23482905982905983	0.9774616840858396	-0.5653602088287312	0.0	0.9793876819248789	-0.5650854330546553	0.0	0.9846314494714258	-0.6738221298417072	0.0	0.964137851692446	-0.7829513134832307	0.0	0.9974680958704303	-0.8056117112536084	0.0	0.9894101085273144	-0.8082046012716917	0.0	0.9544823143189501	-0.7973867985342229	0.0	0.9748045541808035	-0.564923515771961	0.0	0.9825754141871624	-0.6736703192865844	0.0	0.9638400963055612	-0.7761788085409964	0.0	0.9935309813091604	-0.7996545599550052	0.0	0.9903436747263779	-0.7970957714793357	0.0	0.9527006023192477	-0.789749745343885	0.0	0.9940053620532816	-0.4202652745831119	0.0	1.0126560437190666	-0.35174983876874544	0.0	1.0264221691041313	-0.38380086176387984	0.0	0.9957734801589434	-0.42323789577127413	0.0	1.0586069686899058	-0.39114436571715683	0.0	1.1064135374543829	-0.3397662130540109	0.0	0.9807255760734918	-0.4288366096974959	0.0	1.0224145382569754	-0.4675775629437633	0.0	1.0270510385328735	-0.4535240487400714	0.0
8	0.26837606837606837	0.9748077167356595	-0.5634080806840344	0.0	0.9764571785229386	-0.5630552260513503	0.0	0.9848642880803574	-0.6716086577852568	0.0	0.9638576770099961	-0.7803019492803056	0.0	0.9973164922674724	-0.8030984747280097	0.0	0.9889849428453514	-0.8058290059366185	0.0	0.9539796426623564	-0.794510600172847	0.0	0.9729559805037787	-0.5629355587293748	0.0	0.9827890935682743	-0.6712255039307244	0.0	0.9640152228929085	-0.7732212368900409	0.0	0.9941397718187002	-0.7968672949391299	0.0	0.9915326253798661	-0.794503043072455	0.0	0.9525390102800313	-0.7868392587119233	0.0	0.9952111690122142	-0.41887052611147935	0.0	1.0145897853421137	-0.3511537372862392	0.0	1.0276518152037166	-0.383797587252916	0.0	0.9966833998161104	-0.4222383734683648	0.0	1.0623298268316126	-0.39500302341788424	0.0	1.1144745688319262	-0.34646303264376116	0.0	0.9821184069025836	-0.426904286133625	0.0	1.0301057204959019	-0.45518585743966766	0.0	1.041485882384242	-0.42357634756349344	0.0
9	0.3019230769230769	0.9716035336103072	-0.561630886305236	0.0	0.9728884354359592	-0.5612056852369022	0.0	0.9859516069582902	-0.669399176365444	0.0	0.9634576671994253	-0.777065446696619	0.0	0.9973466552846472	-0.7999861883852778	0.0	0.9887117109421171	-0.8028928205829808	0.0	0.9531271032163604	-0.7912222724387957	0.0	0.970526750846276	-0.5610897792281204	0.0	0.9835598710570094	-0.6686427987472219	0.0	0.9640645135960344	-0.7699242226259486	0.0	0.9952673743777348	-0.7936471157465812	0.0	0.9931705690608512	-0.7915169686565299	0.0	0.9521791486070956	-0.78361602097645	0.0	0.9966008156702291	-0.41787033876677016	0.0	1.0165803945719105	-0.35079668726310764	0.0	1.0289924700207467	-0.38443315691838936	0.0	0.9978932285480757	-0.4217264983315546	0.0	1.0661502037696096	-0.4004684573006673	0.0	1.1231185308664344	-0.35622481961934255	0.0	0.9841276683748218	-0.42528455085936695	0.0	1.0384618324833434	-0.4427726298006336	0.0	1.0621540966341478	-0.4015408517596853	0.0
